<?xml version="1.0" standalone="no"?>
<!DOCTYPE svg PUBLIC "-//W3C//DTD SVG 20010904//EN"
 "http://www.w3.org/TR/2001/REC-SVG-20010904/DTD/svg10.dtd">
<svg version="1.0" xmlns="http://www.w3.org/2000/svg"
 width="90.000000pt" height="90.000000pt" viewBox="0 0 90.000000 90.000000"
 preserveAspectRatio="xMidYMid meet">

<g transform="translate(0.000000,90.000000) scale(0.100000,-0.100000)"
fill="#000000" stroke="none">
<path d="M0 450 l0 -450 450 0 450 0 0 450 0 450 -450 0 -450 0 0 -450z m294
381 c26 -27 31 -39 31 -81 0 -43 -5 -54 -33 -82 -28 -28 -39 -33 -82 -33 -43
0 -54 5 -82 33 -28 28 -33 39 -33 81 0 52 25 92 70 112 37 16 96 3 129 -30z
m247 -50 c20 -20 29 -39 29 -61 0 -43 -47 -90 -90 -90 -43 0 -90 47 -90 90 0
22 9 41 29 61 40 39 82 39 122 0z m39 -201 c18 -18 20 -33 20 -159 0 -153 -9
-181 -46 -140 -89 98 -250 25 -215 -99 9 -31 9 -32 -22 -32 -27 0 -36 -7 -60
-45 -18 -28 -36 -45 -48 -45 -27 0 -35 28 -17 58 14 23 14 26 -3 43 -11 11
-33 19 -54 19 -22 0 -43 8 -55 20 -18 18 -20 33 -20 190 0 157 2 172 20 190
19 19 33 20 250 20 217 0 231 -1 250 -20z m258 -71 l3 -56 -42 -6 c-33 -4 -53
-16 -90 -53 l-49 -48 0 66 0 67 68 45 c90 60 106 58 110 -15z m10 -135 c46
-32 31 -58 -110 -200 -73 -73 -143 -135 -156 -139 -19 -5 -36 7 -102 71 -85
82 -96 109 -63 146 25 28 50 22 102 -27 26 -25 52 -45 57 -45 5 0 56 47 114
105 58 58 112 105 120 105 9 0 26 -7 38 -16z"/>
<path d="M184 766 c-10 -26 4 -48 28 -44 17 2 23 10 23 28 0 18 -6 26 -23 28
-13 2 -25 -3 -28 -12z"/>
<path d="M454 736 c-10 -26 4 -48 28 -44 17 2 23 10 23 28 0 18 -6 26 -23 28
-13 2 -25 -3 -28 -12z"/>
</g>
</svg>
